<?xml version="1.0" encoding="UTF-8"?>
<svg version="1.1" xmlns="http://www.w3.org/2000/svg" width="528" height="151">
<path d="M0 0 C1.32 0.33 2.64 0.66 4 1 C4 5.29 4 9.58 4 14 C5.711875 13.071875 7.42375 12.14375 9.1875 11.1875 C24.54343635 3.59035254 41.0487014 2.94218991 57.31640625 7.75390625 C72.7515712 12.97534593 85.11196907 24.54833416 92.6875 38.875 C99.92926948 54.05710193 100.8655281 70.2256376 96 86.3046875 C93.34849948 93.71842251 89.85907397 99.82560623 85 106 C84.38125 106.82628906 83.7625 107.65257813 83.125 108.50390625 C73.53935004 119.76352082 59.3842379 126.08210161 45 128 C45 133.28 45 138.56 45 144 C43.68 144.33 42.36 144.66 41 145 C41 139.39 41 133.78 41 128 C38.916875 128.061875 36.83375 128.12375 34.6875 128.1875 C19.28905316 128.12572088 5.21385057 121.97314196 -5.82421875 111.2421875 C-6.54222656 110.50226563 -7.26023437 109.76234375 -8 109 C-8.96873047 108.04480469 -8.96873047 108.04480469 -9.95703125 107.0703125 C-20.76147822 95.72446623 -25.01109575 80.42926221 -25.05712891 65.09667969 C-24.58929725 47.92685792 -17.2645621 32.87751477 -5 21 C-4.47398193 20.5474585 -3.94796387 20.09491699 -3.40600586 19.62866211 C-1.68444856 17.63447757 -1.59818452 16.62621371 -1.5234375 14.0234375 C-1.4925 13.270625 -1.4615625 12.5178125 -1.4296875 11.7421875 C-1.41164063 10.96101562 -1.39359375 10.17984375 -1.375 9.375 C-1.10472973 1.10472973 -1.10472973 1.10472973 0 0 Z M3 20 C1.3573687 24.40551682 1.5901608 28.50076267 1.828125 33.15234375 C1.84510437 34.40761368 1.86208374 35.66288361 1.87957764 36.95619202 C1.93524255 40.27633009 2.04268329 43.5863513 2.17602539 46.90368652 C2.29937303 50.29493232 2.35370903 53.68723014 2.4140625 57.08007812 C2.54614616 63.72282425 2.74674009 70.36082891 3 77 C6.74695447 74.08306709 9.67218865 71.16656588 12.625 67.4375 C19.09353846 59.30215385 19.09353846 59.30215385 23 58 C20.92432563 63.68117103 18.29314038 67.29063535 14.0625 71.5625 C10.21849852 75.5008328 6.91956536 79.32166033 4 84 C13.13017617 92.91649119 21.26998028 98.18529506 34 100 C34 101.32 34 102.64 34 104 C21.85032927 101.58278802 12.65184061 96.64862841 3 89 C3 93.62 3 98.24 3 103 C1.68 103 0.36 103 -1 103 C-1 76.93 -1 50.86 -1 24 C-11.2579385 32.54828208 -18.05460544 43.55732359 -20 57 C-21.42332287 75.59075184 -18.09095412 90.65318388 -6.04296875 105.39453125 C3.24057341 115.50480814 15.69194187 121.33838837 29 124 C32.96 124 36.92 124 41 124 C41 103.21 41 82.42 41 61 C42.32 61 43.64 61 45 61 C45 63.31 45 65.62 45 68 C45.53367187 67.57847656 46.06734375 67.15695313 46.6171875 66.72265625 C52.25356983 62.57825748 56.91757641 60.46483294 64 61 C66.88657807 61.73876829 69.26495679 62.75243643 72 64 C73.485 64.495 73.485 64.495 75 65 C76.0625 66.75 76.0625 66.75 77 69 C77.34289062 69.75925781 77.68578125 70.51851562 78.0390625 71.30078125 C80.01531191 76.85195337 79.72240791 82.83277627 77.875 88.375 C73.93014621 93.8977953 69.70712805 96.86319864 63 98 C56.8519047 98.08598735 52.91620969 96.86273618 48 93 C46.515 92.01 46.515 92.01 45 91 C45 101.56 45 112.12 45 123 C51.91057214 122.23215865 56.09174797 121.5528946 61.9375 118.5 C62.6284375 118.14397705 63.319375 117.7879541 64.03125 117.42114258 C77.3972873 110.25563496 87.0306461 98.76179336 92.02734375 84.44921875 C96.4783046 68.66528931 95.3001724 53.73037332 88 39 C79.15434678 24.16530763 66.13836825 14.37881637 49.375 10.0625 C34.01202929 7.09739106 15.14658251 9.19038211 3 20 Z M52 67 C48.11211547 70.54143937 46.19469241 73.97519893 45.6875 79.25 C46.17860825 85.14329904 48.3354746 88.45436927 52.625 92.4375 C57.19887932 94.55503672 61.04035723 94.80644598 66 94 C71.13308791 91.38679161 74.1797908 88.46062759 76 83 C76.39614654 77.75105833 75.86557317 74.44657906 73 70 C66.94735061 63.77441777 59.43678866 62.42351467 52 67 Z " fill="#068AB8" transform="translate(415,5)"/>
<path d="M0 0 C1.9375 1.625 1.9375 1.625 3 3 C3.556875 2.360625 4.11375 1.72125 4.6875 1.0625 C7.35673375 -1.31816794 8.46574826 -1.75902829 12 -2 C14.68689444 -1.76402524 17.32712969 -1.38183862 20 -1 C21.32 -1 22.64 -1 24 -1 C24 -0.34 24 0.32 24 1 C22.68 1.33 21.36 1.66 20 2 C19.67 6.62 19.34 11.24 19 16 C18.34 16 17.68 16 17 16 C16.67 11.38 16.34 6.76 16 2 C12.7 4.31 9.4 6.62 6 9 C6.66868314 12.11332248 6.66868314 12.11332248 9.0625 13.1875 C9.701875 13.455625 10.34125 13.72375 11 14 C10.67 14.99 10.34 15.98 10 17 C8.02 16.01 6.04 15.02 4 14 C4 13.34 4 12.68 4 12 C3.154375 12.825 2.30875 13.65 1.4375 14.5 C-1.22846708 16.73006251 -2.01921834 17.00228014 -5.6875 17.4375 C-9 17 -9 17 -12 15 C-12.33 20.61 -12.66 26.22 -13 32 C-13.66 32 -14.32 32 -15 32 C-15 21.11 -15 10.22 -15 -1 C-13.68 -1 -12.36 -1 -11 -1 C-10.401875 -1.20625 -9.80375 -1.4125 -9.1875 -1.625 C-5.77009975 -2.21084004 -3.21162361 -1.16786313 0 0 Z M-10.8125 2.1875 C-12.36927163 4.56362512 -12.8643141 6.15059619 -13 9 C-12.00719496 11.82137181 -12.00719496 11.82137181 -10 14 C-7.22594179 15.06694546 -5.6817176 15.17529881 -2.8125 14.4375 C-0.09030316 12.2785163 0.40382837 10.3783059 1 7 C-0.11516891 4.61035234 -1.13950458 2.86049542 -3 1 C-7.12544271 0.59768561 -7.12544271 0.59768561 -10.8125 2.1875 Z M8 1 C7.34 2.32 6.68 3.64 6 5 C7.98 4.01 9.96 3.02 12 2 C10.68 1.67 9.36 1.34 8 1 Z " fill="#068AB7" transform="translate(223,22)"/>
<path d="M0 0 C0.66 0 1.32 0 2 0 C2 5.28 2 10.56 2 16 C5.465 15.505 5.465 15.505 9 15 C12 16 12 16 13.1875 18.0625 C13.455625 18.701875 13.72375 19.34125 14 20 C14.556875 19.360625 15.11375 18.72125 15.6875 18.0625 C19.26099661 14.87532735 22.58397208 14.90809898 27.20703125 15.12109375 C28.74262737 15.21995187 30.27780048 15.32558143 31.8125 15.4375 C32.99489258 15.51581055 32.99489258 15.51581055 34.20117188 15.59570312 C36.13451529 15.72459269 38.06732164 15.86149494 40 16 C37.24028579 20.91205543 34.33659867 25.45851848 31 30 C33.97 30.33 36.94 30.66 40 31 C40 31.66 40 32.32 40 33 C35.38 33 30.76 33 26 33 C27.63949163 28.90127093 29.10151612 26.19233872 31.625 22.6875 C32.25664062 21.80449219 32.88828125 20.92148437 33.5390625 20.01171875 C34.26222656 19.01591797 34.26222656 19.01591797 35 18 C27.31513055 18.1423124 22.94721641 21.33241007 17 26 C18.13304992 29.39914975 19.12518475 30.05254451 22 32 C21.34 32.66 20.68 33.32 20 34 C15.125 31.25 15.125 31.25 14 29 C13.67 30.32 13.34 31.64 13 33 C12.34 33 11.68 33 11 33 C10.67 28.05 10.34 23.1 10 18 C4.48436516 18.32188877 4.48436516 18.32188877 3 20 C2.76518307 22.18292774 2.58636677 24.37203174 2.4375 26.5625 C2.35371094 27.76003906 2.26992187 28.95757812 2.18359375 30.19140625 C2.12300781 31.11824219 2.06242188 32.04507813 2 33 C1.34 33 0.68 33 0 33 C0 22.11 0 11.22 0 0 Z M17.3125 19.5 C16.879375 19.995 16.44625 20.49 16 21 C16.33 21.66 16.66 22.32 17 23 C18.65 21.35 20.3 19.7 22 18 C18.99740483 17.66781808 18.99740483 17.66781808 17.3125 19.5 Z " fill="#068AB7" transform="translate(155,5)"/>
<path d="M0 0 C0.5775 0.226875 1.155 0.45375 1.75 0.6875 C1.5625 2.5625 1.5625 2.5625 0.75 4.6875 C-0.90204456 5.38961894 -2.56923769 6.05721413 -4.25 6.6875 C-5.76624803 11.2362441 -6.35570537 15.40880387 -4.23095703 19.78759766 C-2.83608745 21.92901716 -1.36142835 23.96739142 0.1875 26 C1.20981256 27.38988561 2.22946284 28.78173442 3.24609375 30.17578125 C3.70169678 30.77946533 4.1572998 31.38314941 4.62670898 32.00512695 C7.72927488 36.65189539 7.2802566 42.33882476 6.75 47.6875 C4.36043104 52.96446479 -0.12227301 56.99472717 -5.25 59.6875 C-8.00390625 59.8515625 -8.00390625 59.8515625 -10.25 59.6875 C-10.25 58.6975 -10.25 57.7075 -10.25 56.6875 C-8.1328125 55.00390625 -8.1328125 55.00390625 -5.375 53.25 C-0.78714272 50.33057998 -0.78714272 50.33057998 1.75 45.6875 C2.89018697 37.38042348 -1.73655772 31.60125637 -6.5 25.25 C-7.00015625 24.61191406 -7.5003125 23.97382812 -8.015625 23.31640625 C-11.46168229 18.76891925 -10.78300442 13.1489699 -10.25 7.6875 C-8.5 4.625 -8.5 4.625 -6.25 2.6875 C-5.59 2.06875 -4.93 1.45 -4.25 0.8125 C-2.25 -0.3125 -2.25 -0.3125 0 0 Z " fill="#068AB7" transform="translate(447.25,40.3125)"/>
<path d="M0 0 C0.66 0 1.32 0 2 0 C2.33 6.93 2.66 13.86 3 21 C4.65 19.02 6.3 17.04 8 15 C8.66 15 9.32 15 10 15 C8.6302836 18.99500618 6.74277578 21.80009492 4 25 C5.51398455 28.78496138 6.0144396 29.0072198 10 31 C10.33 20.77 10.66 10.54 11 0 C11.66 0 12.32 0 13 0 C13 10.89 13 21.78 13 33 C13.66 33 14.32 33 15 33 C14.67 33.99 14.34 34.98 14 36 C12.35293447 35.35731563 10.70737825 34.71076198 9.0625 34.0625 C8.14597656 33.70285156 7.22945312 33.34320313 6.28515625 32.97265625 C4 32 4 32 3 31 C2.67 31.66 2.34 32.32 2 33 C1.34 33 0.68 33 0 33 C0 22.11 0 11.22 0 0 Z " fill="#068AB8" transform="translate(11,5)"/>
<path d="M0 0 C0.99 0 1.98 0 3 0 C3 1.65 3 3.3 3 5 C3.99 5 4.98 5 6 5 C6 5.99 6 6.98 6 8 C5.01 8 4.02 8 3 8 C3.11347619 9.97986082 3.2410935 11.95891598 3.375 13.9375 C3.44460938 15.03964844 3.51421875 16.14179688 3.5859375 17.27734375 C3.72257812 18.17582031 3.85921875 19.07429688 4 20 C4.66 20.33 5.32 20.66 6 21 C6 21.66 6 22.32 6 23 C4.35 22.67 2.7 22.34 1 22 C-0.00496852 18.98509443 -0.10335303 16.95818308 -0.0625 13.8125 C-0.05347656 12.91144531 -0.04445313 12.01039062 -0.03515625 11.08203125 C-0.02355469 10.39496094 -0.01195312 9.70789062 0 9 C-1.65226769 10.0945149 -3.29664298 11.2009517 -4.9375 12.3125 C-5.85402344 12.92738281 -6.77054688 13.54226562 -7.71484375 14.17578125 C-10.25778947 15.8664904 -10.25778947 15.8664904 -11 19 C-8.525 19.99 -8.525 19.99 -6 21 C-6.33 21.99 -6.66 22.98 -7 24 C-10.26460973 22.19587357 -11.88929795 21.16605307 -14 18 C-14.66976744 10.96744186 -14.66976744 10.96744186 -12.3125 7.5625 C-8.80921826 5.19541774 -6.34689758 4.7904826 -2.1875 5.4375 C-1.465625 5.623125 -0.74375 5.80875 0 6 C0 4.02 0 2.04 0 0 Z M-9.6875 9.5 C-10.120625 9.995 -10.55375 10.49 -11 11 C-7.99740483 11.33218192 -7.99740483 11.33218192 -6.3125 9.5 C-5.879375 9.005 -5.44625 8.51 -5 8 C-8.00259517 7.66781808 -8.00259517 7.66781808 -9.6875 9.5 Z " fill="#068AB8" transform="translate(261,15)"/>
<path d="M0 0 C0.99 0 1.98 0 3 0 C3.33 6.6 3.66 13.2 4 20 C5.32 18.35 6.64 16.7 8 15 C8.99 15 9.98 15 11 15 C9.6302836 18.99500618 7.74277578 21.80009492 5 25 C6.01755741 27.66130399 6.66684861 28.80516056 9.1640625 30.265625 C9.97617188 30.59046875 10.78828125 30.9153125 11.625 31.25 C12.44226563 31.58515625 13.25953125 31.9203125 14.1015625 32.265625 C14.72804688 32.50796875 15.35453125 32.7503125 16 33 C15.67 33.99 15.34 34.98 15 36 C13.72740489 35.54658132 12.45698757 35.08704773 11.1875 34.625 C10.12595703 34.24214844 10.12595703 34.24214844 9.04296875 33.8515625 C7 33 7 33 4 31 C3.67 31.66 3.34 32.32 3 33 C2.01 33 1.02 33 0 33 C0 22.11 0 11.22 0 0 Z " fill="#068AB7" transform="translate(85,5)"/>
<path d="M0 0 C0.66 0 1.32 0 2 0 C2 5.28 2 10.56 2 16 C2.66 15.67 3.32 15.34 4 15 C8.05142119 14.74139865 9.54337669 14.69558446 13 17 C14.14077657 20.42232972 14.09815117 23.08673217 14.0625 26.6875 C14.05347656 27.86699219 14.04445313 29.04648437 14.03515625 30.26171875 C14.02355469 31.16535156 14.01195313 32.06898437 14 33 C13.01 33 12.02 33 11 33 C10.67 28.38 10.34 23.76 10 19 C8.02 19 6.04 19 4 19 C2.64908472 21.70183055 2.66141942 24.11808206 2.4375 27.125 C2.35371094 28.22070312 2.26992188 29.31640625 2.18359375 30.4453125 C2.12300781 31.28835937 2.06242187 32.13140625 2 33 C1.34 33 0.68 33 0 33 C0 22.11 0 11.22 0 0 Z " fill="#068AB8" transform="translate(50,5)"/>
<path d="M0 0 C1.27875 -0.061875 2.5575 -0.12375 3.875 -0.1875 C4.95394531 -0.23970703 4.95394531 -0.23970703 6.0546875 -0.29296875 C6.69664063 -0.19628906 7.33859375 -0.09960938 8 0 C10.49118953 3.7367843 10.2065226 5.74451819 10.125 10.1875 C10.10695312 11.45980469 10.08890625 12.73210938 10.0703125 14.04296875 C10.03550781 15.50669922 10.03550781 15.50669922 10 17 C1.29841489 18.47484493 1.29841489 18.47484493 -3 16 C-4.52846661 12.94306678 -4.23242445 10.37015453 -4 7 C-2.5625 4.75 -2.5625 4.75 -1 3 C-0.67 2.01 -0.34 1.02 0 0 Z M2 2 C2.66 2.66 3.32 3.32 4 4 C4.99 3.67 5.98 3.34 7 3 C5.35 2.67 3.7 2.34 2 2 Z M0 6 C-2.33391203 8.78114056 -2.33391203 8.78114056 -1.625 11.6875 C-1.41875 12.450625 -1.2125 13.21375 -1 14 C1.97 14.495 1.97 14.495 5 15 C5.99 13.35 6.98 11.7 8 10 C6.84315671 7.9004467 6.84315671 7.9004467 5 6 C2.45709375 5.41649495 2.45709375 5.41649495 0 6 Z " fill="#068AB8" transform="translate(120,21)"/>
<path d="M0 0 C1.50156874 3.00313748 1.09281204 5.79067522 1.0625 9.125 C1.05347656 10.40632813 1.04445312 11.68765625 1.03515625 13.0078125 C1.02355469 13.99523438 1.01195312 14.98265625 1 16 C0.34 16 -0.32 16 -1 16 C-1.06058594 15.24074219 -1.12117187 14.48148438 -1.18359375 13.69921875 C-1.26738281 12.70535156 -1.35117188 11.71148437 -1.4375 10.6875 C-1.51871094 9.70136719 -1.59992188 8.71523438 -1.68359375 7.69921875 C-1.91812559 4.90624401 -1.91812559 4.90624401 -3 2 C-4.66611905 1.957279 -6.33382885 1.95936168 -8 2 C-9.87824891 3.87824891 -9.39102397 7.03935276 -9.5625 9.5625 C-9.68818359 11.35880859 -9.68818359 11.35880859 -9.81640625 13.19140625 C-9.87699219 14.11824219 -9.93757812 15.04507813 -10 16 C-10.99 16 -11.98 16 -13 16 C-13 10.39 -13 4.78 -13 -1 C-7.32100156 -1.94649974 -5.17618084 -1.9283811 0 0 Z " fill="#068BB8" transform="translate(144,22)"/>
<path d="M0 0 C1.14077657 3.42232972 1.09815117 6.08673217 1.0625 9.6875 C1.05347656 10.86699219 1.04445313 12.04648437 1.03515625 13.26171875 C1.02355469 14.16535156 1.01195313 15.06898437 1 16 C0.01 16 -0.98 16 -2 16 C-2.33 11.38 -2.66 6.76 -3 2 C-4.65 2 -6.3 2 -8 2 C-10.18994248 5.28491373 -10.35277339 6.83095639 -10.625 10.6875 C-10.69976562 11.68136719 -10.77453125 12.67523438 -10.8515625 13.69921875 C-10.90054688 14.45847656 -10.94953125 15.21773437 -11 16 C-11.66 16 -12.32 16 -13 16 C-13 10.39 -13 4.78 -13 -1 C-7.34153852 -1.94307691 -5.14112639 -2.01612799 0 0 Z " fill="#068AB8" transform="translate(78,22)"/>
<path d="M0 0 C-3.43361902 3.63559661 -6.7973607 6.36113346 -11 9 C-10.33131686 12.11332248 -10.33131686 12.11332248 -7.9375 13.1875 C-7.298125 13.455625 -6.65875 13.72375 -6 14 C-6.33 14.99 -6.66 15.98 -7 17 C-12.56363636 14.70197628 -12.56363636 14.70197628 -14.4375 11.6875 C-15.13205095 8.36908992 -14.96874011 6.25219893 -14 3 C-9.52472828 -2.51950179 -6.47572672 -2.07711989 0 0 Z M-9 1 C-10.77190909 2.35444301 -10.77190909 2.35444301 -12 4 C-11.67 4.66 -11.34 5.32 -11 6 C-9.02 4.68 -7.04 3.36 -5 2 C-6.83700789 1.22757731 -6.83700789 1.22757731 -9 1 Z " fill="#068BB8" transform="translate(282,22)"/>
<path d="M0 0 C0.66 0 1.32 0 2 0 C2.06058594 0.92683594 2.12117188 1.85367187 2.18359375 2.80859375 C2.26738281 4.00613281 2.35117187 5.20367187 2.4375 6.4375 C2.51871094 7.63246094 2.59992187 8.82742187 2.68359375 10.05859375 C2.67656114 12.88570244 2.67656114 12.88570244 4 14 C5.66617115 14.04063832 7.33388095 14.042721 9 14 C10.00259507 10.99221479 10.30314642 8.46179353 10.5625 5.3125 C10.64628906 4.31863281 10.73007812 3.32476563 10.81640625 2.30078125 C10.87699219 1.54152344 10.93757813 0.78226563 11 0 C11.66 0 12.32 0 13 0 C13.05398987 2.27057377 13.09278742 4.54151288 13.125 6.8125 C13.14820313 8.07707031 13.17140625 9.34164063 13.1953125 10.64453125 C13 14 13 14 11 17 C5.13664993 18.5201278 5.13664993 18.5201278 1.7890625 16.98828125 C-0.86970365 14.03345162 -0.43249242 11.07114197 -0.25 7.3125 C-0.23195313 6.61060547 -0.21390625 5.90871094 -0.1953125 5.18554688 C-0.14826213 3.45644564 -0.07651873 1.72804795 0 0 Z " fill="#068AB9" transform="translate(27,21)"/>
<path d="M0 0 C0.66 0 1.32 0 2 0 C2 6.6 2 13.2 2 20 C-0.97 20 -3.94 20 -7 20 C-9 18 -9 18 -9.3125 15.0625 C-9 12 -9 12 -7.8125 10.125 C-5.43963721 8.65218861 -3.74086056 8.77776806 -1 9 C-0.67 6.03 -0.34 3.06 0 0 Z M-6 11 C-7.28322547 12.0595877 -7.28322547 12.0595877 -7.125 14.5 C-7.28322547 16.9404123 -7.28322547 16.9404123 -6 18 C-4.33382885 18.04063832 -2.66611905 18.042721 -1 18 C-0.32041397 15.60280568 -0.32041397 15.60280568 0 13 C-0.66 12.34 -1.32 11.68 -2 11 C-3.32 11 -4.64 11 -6 11 Z " fill="#068AB8" transform="translate(291,50)"/>
<path d="M0 0 C0.66 0 1.32 0 2 0 C2 6.6 2 13.2 2 20 C-0.97 20 -3.94 20 -7 20 C-9.15502531 16.76746204 -9.46856135 15.74849077 -9 12 C-7.8125 10.1875 -7.8125 10.1875 -6 9 C-3.3125 8.8125 -3.3125 8.8125 -1 9 C-0.67 6.03 -0.34 3.06 0 0 Z M-5 11 C-5.66 11.66 -6.32 12.32 -7 13 C-6.67958603 15.60280568 -6.67958603 15.60280568 -6 18 C-4.35 18 -2.7 18 -1 18 C-0.32041397 15.60280568 -0.32041397 15.60280568 0 13 C-0.66 12.34 -1.32 11.68 -2 11 C-2.99 11 -3.98 11 -5 11 Z " fill="#068AB8" transform="translate(70,50)"/>
<path d="M0 0 C0.33 0 0.66 0 1 0 C1 3.3 1 6.6 1 10 C4.465 9.505 4.465 9.505 8 9 C9.5625 10.6875 9.5625 10.6875 11 13 C10.75925978 16.37036311 10.41201979 17.58798021 8 20 C5.36 20 2.72 20 0 20 C0 13.4 0 6.8 0 0 Z M3 11 C2.34 12.32 1.68 13.64 1 15 C1.99 16.485 1.99 16.485 3 18 C5.58380177 18.25030977 5.58380177 18.25030977 8 18 C8.67958603 15.60280568 8.67958603 15.60280568 9 13 C8.34 12.34 7.68 11.68 7 11 C5.68 11 4.36 11 3 11 Z " fill="#068AB7" transform="translate(152,50)"/>
<path d="M0 0 C0.99 0.495 0.99 0.495 2 1 C2.61875 0.814375 3.2375 0.62875 3.875 0.4375 C6 0 6 0 8.1875 0.625 C10 2 10 2 10.875 4.375 C11.01736213 7.36460475 10.85012935 8.64528992 9 11 C6.12060581 11.93580311 4.74490212 12.37245106 2 11 C1.67 13.97 1.34 16.94 1 20 C0.67 20 0.34 20 0 20 C0 13.4 0 6.8 0 0 Z M2.1875 3.1875 C0.74709672 4.95054109 0.74709672 4.95054109 1.3125 7.1875 C1.539375 7.785625 1.76625 8.38375 2 9 C3.83700789 9.77242269 3.83700789 9.77242269 6 10 C7.91666667 8.91666667 7.91666667 8.91666667 9 7 C8.77242269 4.83700789 8.77242269 4.83700789 8 3 C4.99251085 1.84137694 4.99251085 1.84137694 2.1875 3.1875 Z " fill="#0589B8" transform="translate(126,59)"/>
<path d="M0 0 C1.8125 0.875 1.8125 0.875 2.8125 2.875 C2.94665472 5.5473621 2.85568541 8.19750488 2.8125 10.875 C-3.33984375 10.97265625 -3.33984375 10.97265625 -5.1875 10.875 C-6.1875 9.875 -6.1875 9.875 -6.5 7.0625 C-6.1875 3.875 -6.1875 3.875 -4.4375 1.4375 C-2.1875 -0.125 -2.1875 -0.125 0 0 Z M-4.1875 4.875 C-4.1875 6.195 -4.1875 7.515 -4.1875 8.875 C-2.8675 8.875 -1.5475 8.875 -0.1875 8.875 C-0.1875 7.555 -0.1875 6.235 -0.1875 4.875 C-1.5075 4.875 -2.8275 4.875 -4.1875 4.875 Z " fill="#058AB7" transform="translate(276.1875,59.125)"/>
<path d="M0 0 C1.32 0 2.64 0 4 0 C4 0.66 4 1.32 4 2 C3.01 2.495 3.01 2.495 2 3 C2.57344937 5.86724686 2.8614515 6.8614515 5 9 C5.125 11.625 5.125 11.625 5 14 C5.99 14 6.98 14 8 14 C8 14.99 8 15.98 8 17 C7.46375 16.79375 6.9275 16.5875 6.375 16.375 C3.16732692 15.8685253 0.98682934 16.84599775 -2 18 C-2 17.01 -2 16.02 -2 15 C-0.68 14.34 0.64 13.68 2 13 C1.42655063 10.13275314 1.1385485 9.1385485 -1 7 C-1.1875 3.9375 -1.1875 3.9375 -1 1 C-0.67 0.67 -0.34 0.34 0 0 Z " fill="#068AB8" transform="translate(297,21)"/>
<path d="M0 0 C2.625 0.9375 2.625 0.9375 5 2 C5 4.97 5 7.94 5 11 C1.625 11.125 1.625 11.125 -2 11 C-2.66 10.34 -3.32 9.68 -4 9 C-3.63723355 6.17042171 -2.90305236 3.70915709 -2 1 C-1.34 0.67 -0.68 0.34 0 0 Z M-1 5 C-1 6.32 -1 7.64 -1 9 C0.32 8.67 1.64 8.34 3 8 C2.67 7.01 2.34 6.02 2 5 C1.01 5 0.02 5 -1 5 Z " fill="#068AB9" transform="translate(53,59)"/>
<path d="M0 0 C-1 3 -1 3 -2.625 4.3125 C-4.33748043 6.03353093 -4.33748043 6.03353093 -3.875 9.0625 C-3.25349587 12.29255415 -3.25349587 12.29255415 0 14 C0.99 14 1.98 14 3 14 C3 14.99 3 15.98 3 17 C0.25 17.3125 0.25 17.3125 -3 17 C-6.1340025 14.27836625 -6.91220969 12.61453214 -7.5 8.5 C-6.80614794 3.64303557 -5.29505331 0 0 0 Z " fill="#068AB8" transform="translate(312,21)"/>
<path d="M0 0 C2 2 2 2 2.25 5 C2 8 2 8 0 10 C-3.5 10.3125 -3.5 10.3125 -7 10 C-9.14762184 6.77856724 -9.561068 5.7404533 -9 2 C-6.07557433 -1.24936186 -4.04996841 -1.38551551 0 0 Z M-5 1 C-5.66 1.66 -6.32 2.32 -7 3 C-6.67958603 5.60280568 -6.67958603 5.60280568 -6 8 C-4.35 8 -2.7 8 -1 8 C-0.32041397 5.60280568 -0.32041397 5.60280568 0 3 C-0.66 2.34 -1.32 1.68 -2 1 C-2.99 1 -3.98 1 -5 1 Z " fill="#068AB8" transform="translate(193,60)"/>
<path d="M0 0 C0.66 0.66 1.32 1.32 2 2 C1.42307692 8.57692308 1.42307692 8.57692308 0 10 C-3.4375 10.1875 -3.4375 10.1875 -7 10 C-9 8 -9 8 -9.375 5.0625 C-9 2 -9 2 -7.3125 0.0625 C-4.38550346 -1.28233625 -3.01415011 -1.03115662 0 0 Z M-5 1 C-5.66 1.66 -6.32 2.32 -7 3 C-6.67958603 5.60280568 -6.67958603 5.60280568 -6 8 C-4.35 8 -2.7 8 -1 8 C-0.32041397 5.60280568 -0.32041397 5.60280568 0 3 C-0.66 2.34 -1.32 1.68 -2 1 C-2.99 1 -3.98 1 -5 1 Z " fill="#068AB7" transform="translate(305,60)"/>
<path d="M0 0 C2 2 2 2 2.25 5 C2 8 2 8 0 10 C-3.5 10.3125 -3.5 10.3125 -7 10 C-9.14762184 6.77856724 -9.561068 5.7404533 -9 2 C-6.07557433 -1.24936186 -4.04996841 -1.38551551 0 0 Z M-5 1 C-5.66 1.66 -6.32 2.32 -7 3 C-6.67958603 5.60280568 -6.67958603 5.60280568 -6 8 C-4.35 8 -2.7 8 -1 8 C-0.32041397 5.60280568 -0.32041397 5.60280568 0 3 C-0.66 2.34 -1.32 1.68 -2 1 C-2.99 1 -3.98 1 -5 1 Z " fill="#068AB8" transform="translate(84,60)"/>
<path d="M0 0 C0 0.66 0 1.32 0 2 C-0.66 2.391875 -1.32 2.78375 -2 3.1875 C-4.37301228 4.95036736 -4.37301228 4.95036736 -4.5 8.5 C-4.37301228 12.04963264 -4.37301228 12.04963264 -2 13.8125 C-1.34 14.204375 -0.68 14.59625 0 15 C0 15.66 0 16.32 0 17 C-3.26892205 16.73495227 -4.63439501 16.40216549 -6.875 13.9375 C-8.47677364 9.75509106 -7.98761713 7.373733 -7 3 C-4.81882296 -0.32369835 -4.19852971 0 0 0 Z " fill="#068BB8" transform="translate(49,21)"/>
<path d="M0 0 C1.32 0 2.64 0 4 0 C4 0.66 4 1.32 4 2 C3.01 2.495 3.01 2.495 2 3 C2.57344937 5.86724686 2.8614515 6.8614515 5 9 C5.4375 11.9375 5.4375 11.9375 5 15 C2.61107499 16.88599343 1.08148442 18 -2 18 C-2 17.01 -2 16.02 -2 15 C-0.68 14.34 0.64 13.68 2 13 C1.42655063 10.13275314 1.1385485 9.1385485 -1 7 C-1.1875 3.9375 -1.1875 3.9375 -1 1 C-0.67 0.67 -0.34 0.34 0 0 Z " fill="#068AB8" transform="translate(110,21)"/>
<path d="M0 0 C1.38125018 2.76250036 1.19079306 4.94731099 1 8 C-1 10 -1 10 -3.9375 10.375 C-7 10 -7 10 -9 8.375 C-10 6 -10 6 -9.3125 2.8125 C-7.07215493 -1.98823944 -4.74476234 -1.11047629 0 0 Z M-6 1 C-6.66 1.66 -7.32 2.32 -8 3 C-7.67958603 5.60280568 -7.67958603 5.60280568 -7 8 C-5.35 8 -3.7 8 -2 8 C-1.34 6.68 -0.68 5.36 0 4 C-1.31201173 2.43750191 -1.31201173 2.43750191 -3 1 C-3.99 1 -4.98 1 -6 1 Z " fill="#068AB7" transform="translate(26,60)"/>
<path d="M0 0 C1.32 0.33 2.64 0.66 4 1 C3.0409375 1.556875 3.0409375 1.556875 2.0625 2.125 C-0.19614315 3.89717488 -0.19614315 3.89717488 -1.0625 6.75 C-0.97509278 11.29517524 1.12143739 13.6333766 4 17 C1.06832781 16.68306247 -0.58982661 16.36774166 -2.8125 14.375 C-4.49188284 11.01623433 -4.45564133 8.71022229 -4 5 C-2 2.0625 -2 2.0625 0 0 Z " fill="#068AB7" transform="translate(150,21)"/>
<path d="M0 0 C0.99 0.495 0.99 0.495 2 1 C2 3.64 2 6.28 2 9 C3.32 9 4.64 9 6 9 C6 6.36 6 3.72 6 1 C6.66 0.67 7.32 0.34 8 0 C8.0270043 1.45823212 8.04639787 2.91660675 8.0625 4.375 C8.07410156 5.18710938 8.08570313 5.99921875 8.09765625 6.8359375 C8 9 8 9 7 11 C5.00045254 11.04254356 2.99958364 11.04080783 1 11 C0 10 0 10 -0.09765625 7.71484375 C-0.08605469 6.79832031 -0.07445312 5.88179688 -0.0625 4.9375 C-0.05347656 4.01839844 -0.04445312 3.09929688 -0.03515625 2.15234375 C-0.02355469 1.44207031 -0.01195312 0.73179688 0 0 Z " fill="#058BB5" transform="translate(140,59)"/>
<path d="M0 0 C0.763125 0.20625 1.52625 0.4125 2.3125 0.625 C1.9825 1.615 1.6525 2.605 1.3125 3.625 C-1.25 4.8125 -1.25 4.8125 -3.6875 5.625 C-3.1925 6.07875 -2.6975 6.5325 -2.1875 7 C-0.6875 8.625 -0.6875 8.625 -0.6875 10.625 C-4.5625 9.75 -4.5625 9.75 -5.6875 8.625 C-5.9375 5.1875 -5.9375 5.1875 -5.6875 1.625 C-2.6875 -0.375 -2.6875 -0.375 0 0 Z " fill="#0589B4" transform="translate(228.6875,59.375)"/>
<path d="M0 0 C0 3.11227195 -0.45627049 5.94152152 -1 9 C-0.34 9 0.32 9 1 9 C1 9.66 1 10.32 1 11 C0.34 11 -0.32 11 -1 11 C-1 13.97 -1 16.94 -1 20 C-1.66 20 -2.32 20 -3 20 C-4.4487669 7.67433701 -4.4487669 7.67433701 -3 2 C-2.01 1.34 -1.02 0.68 0 0 Z " fill="#0689B6" transform="translate(259,50)"/>
<path d="M0 0 C-1.62339805 1.70884005 -3.29319053 3.37446717 -5 5 C-5.66 5 -6.32 5 -7 5 C-6.505 5.45375 -6.01 5.9075 -5.5 6.375 C-4 8 -4 8 -4 10 C-7.875 9.125 -7.875 9.125 -9 8 C-9.23529412 2.47058824 -9.23529412 2.47058824 -8 0 C-4.71023192 -1.09658936 -3.28696233 -0.79953138 0 0 Z " fill="#068AB7" transform="translate(106,60)"/>
<path d="M0 0 C6.875 0.875 6.875 0.875 8 2 C8.07179964 3.51928038 8.08392007 5.04167482 8.0625 6.5625 C8.05347656 7.38878906 8.04445313 8.21507813 8.03515625 9.06640625 C8.02355469 9.70449219 8.01195312 10.34257813 8 11 C7.34 11 6.68 11 6 11 C5.67 8.36 5.34 5.72 5 3 C4.01 3.33 3.02 3.66 2 4 C1.67 6.31 1.34 8.62 1 11 C0.67 11 0.34 11 0 11 C0 7.37 0 3.74 0 0 Z " fill="#078AB9" transform="translate(31,59)"/>
<path d="M0 0 C0.66 0 1.32 0 2 0 C2 0.99 2 1.98 2 3 C2.66 3 3.32 3 4 3 C4 3.66 4 4.32 4 5 C3.34 5 2.68 5 2 5 C2 7.31 2 9.62 2 12 C2.66 12 3.32 12 4 12 C4 12.66 4 13.32 4 14 C2.68 13.67 1.36 13.34 0 13 C-0.19551338 11.39679026 -0.38111983 9.79237014 -0.5625 8.1875 C-0.71912109 6.84751953 -0.71912109 6.84751953 -0.87890625 5.48046875 C-1 3 -1 3 0 0 Z " fill="#068BB9" transform="translate(43,56)"/>
<path d="M0 0 C0.66 0 1.32 0 2 0 C2 0.99 2 1.98 2 3 C2.66 3 3.32 3 4 3 C4 3.66 4 4.32 4 5 C3.34 5 2.68 5 2 5 C2 7.31 2 9.62 2 12 C2.66 12 3.32 12 4 12 C4 12.66 4 13.32 4 14 C3.01 14 2.02 14 1 14 C-0.38226016 11.23547967 -0.09525387 8.9538637 -0.0625 5.875 C-0.05347656 4.77929688 -0.04445312 3.68359375 -0.03515625 2.5546875 C-0.02355469 1.71164063 -0.01195312 0.86859375 0 0 Z " fill="#078AB8" transform="translate(242,56)"/>
<path d="M0 0 C0.66 0 1.32 0 2 0 C2 5.61 2 11.22 2 17 C1.34 17 0.68 17 0 17 C0 11.39 0 5.78 0 0 Z " fill="#068AB8" transform="translate(81,21)"/>
<path d="M0 0 C-0.33 0.99 -0.66 1.98 -1 3 C-1.66 3 -2.32 3 -3 3 C-2.65555119 5.47266765 -2.65555119 5.47266765 -2 8 C-1.34 8.33 -0.68 8.66 0 9 C0 9.66 0 10.32 0 11 C-3.875 10.125 -3.875 10.125 -5 9 C-5.4664311 3.6360424 -5.4664311 3.6360424 -3.625 1.125 C-2 0 -2 0 0 0 Z " fill="#0589B6" transform="translate(14,59)"/>
<path d="M0 0 C0.144375 0.639375 0.28875 1.27875 0.4375 1.9375 C0.81007181 3.97545146 0.81007181 3.97545146 2 5 C2.04063832 6.66617115 2.042721 8.33388095 2 10 C0.68 10.33 -0.64 10.66 -2 11 C-2 10.34 -2 9.68 -2 9 C-1.34 9 -0.68 9 0 9 C-0.33 8.4225 -0.66 7.845 -1 7.25 C-2 5 -2 5 -2 1 C-1.34 0.67 -0.68 0.34 0 0 Z " fill="#0589B4" transform="translate(312,59)"/>
<path d="M0 0 C2.91622848 2.91622848 2 6.03964693 2 10 C0.68 10.33 -0.64 10.66 -2 11 C-1.34 9.68 -0.68 8.36 0 7 C-0.66 6.34 -1.32 5.68 -2 5 C-1.46428571 1.46428571 -1.46428571 1.46428571 0 0 Z " fill="#068AB6" transform="translate(200,59)"/>
<path d="M0 0 C0 2.83967231 -0.40267181 5.23735711 -1 8 C-0.34 8.33 0.32 8.66 1 9 C1 9.66 1 10.32 1 11 C-0.32 10.67 -1.64 10.34 -3 10 C-3.75 7.25 -3.75 7.25 -4 4 C-2.0625 1.625 -2.0625 1.625 0 0 Z " fill="#068BB9" transform="translate(266,59)"/>
<path d="M0 0 C2.475 0.495 2.475 0.495 5 1 C4.67 1.66 4.34 2.32 4 3 C3.34 3 2.68 3 2 3 C2 5.64 2 8.28 2 11 C1.34 11 0.68 11 0 11 C0 7.37 0 3.74 0 0 Z " fill="#068AB4" transform="translate(234,59)"/>
<path d="M0 0 C0 2.83967231 -0.40267181 5.23735711 -1 8 C-0.34 8.33 0.32 8.66 1 9 C1 9.66 1 10.32 1 11 C-0.32 10.67 -1.64 10.34 -3 10 C-3.75 7.25 -3.75 7.25 -4 4 C-2.0625 1.625 -2.0625 1.625 0 0 Z " fill="#0588B4" transform="translate(219,59)"/>
<path d="M0 0 C0.66 0 1.32 0 2 0 C2 4.29 2 8.58 2 13 C1.34 13 0.68 13 0 13 C0 8.71 0 4.42 0 0 Z " fill="#068BBA" transform="translate(171,57)"/>
<path d="M0 0 C0.66 0 1.32 0 2 0 C2 4.29 2 8.58 2 13 C1.34 13 0.68 13 0 13 C0 8.71 0 4.42 0 0 Z " fill="#048DB7" transform="translate(250,57)"/>
<path d="M0 0 C1.58502671 3.17005342 1.60385067 6.49124878 2 10 C0.68 10.33 -0.64 10.66 -2 11 C-2 10.34 -2 9.68 -2 9 C-1.34 9 -0.68 9 0 9 C-0.33 8.4225 -0.66 7.845 -1 7.25 C-2 5 -2 5 -2 1 C-1.34 0.67 -0.68 0.34 0 0 Z " fill="#068BB9" transform="translate(110,59)"/>
<path d="M0 0 C0 3 0 3 -1 6 C-0.12085312 8.6569191 -0.12085312 8.6569191 1 11 C-0.32 10.34 -1.64 9.68 -3 9 C-3.1875 5.625 -3.1875 5.625 -3 2 C-2.01 1.34 -1.02 0.68 0 0 Z " fill="#0588B3" transform="translate(180,59)"/>
<path d="M0 0 C0.99 0.33 1.98 0.66 3 1 C1.35 2.98 -0.3 4.96 -2 7 C-2.66 6.67 -3.32 6.34 -4 6 C-2.84826645 3.53199953 -1.95216435 1.95216435 0 0 Z " fill="#0589B6" transform="translate(126,12)"/>
<path d="M0 0 C0.33 0 0.66 0 1 0 C1 6.6 1 13.2 1 20 C0.67 20 0.34 20 0 20 C0 13.4 0 6.8 0 0 Z " fill="#068BB9" transform="translate(166,50)"/>
<path d="M0 0 C0.66 0.66 1.32 1.32 2 2 C0.515 4.475 0.515 4.475 -1 7 C-1.99 6.67 -2.98 6.34 -4 6 C-2.68 4.02 -1.36 2.04 0 0 Z " fill="#068AB9" transform="translate(282,35)"/>
<path d="M0 0 C1.98 0.99 1.98 0.99 4 2 C3.34 2.66 2.68 3.32 2 4 C1.59952556 6.32275177 1.2602896 8.65739357 1 11 C0.67 11 0.34 11 0 11 C0 7.37 0 3.74 0 0 Z " fill="#068AB5" transform="translate(90,59)"/>
<path d="M0 0 C0.33 0.99 0.66 1.98 1 3 C-0.32 3.33 -1.64 3.66 -3 4 C-2.01 2.68 -1.02 1.36 0 0 Z " fill="#0487B3" transform="translate(146,54)"/>
<path d="M0 0 C0.99 0 1.98 0 3 0 C3 0.99 3 1.98 3 3 C2.01 3 1.02 3 0 3 C0 2.01 0 1.02 0 0 Z " fill="#078BB9" transform="translate(80,16)"/>
</svg>
